<?xml version="1.0" encoding="UTF-8" standalone="no"?>
<svg
   sodipodi:docname="bevy.svg"
   inkscape:version="1.1.1 (3bf5ae0d25, 2021-09-20)"
   id="svg2321"
   fill="currentColor"
   version="1.1"
   viewBox="0 0 36.000001 36"
   height="36mm"
   width="36mm"
   xmlns:inkscape="http://www.inkscape.org/namespaces/inkscape"
   xmlns:sodipodi="http://sodipodi.sourceforge.net/DTD/sodipodi-0.dtd"
   xmlns="http://www.w3.org/2000/svg"
   xmlns:svg="http://www.w3.org/2000/svg"
   xmlns:rdf="http://www.w3.org/1999/02/22-rdf-syntax-ns#"
   xmlns:cc="http://creativecommons.org/ns#"
   xmlns:dc="http://purl.org/dc/elements/1.1/">
  <defs
     id="defs2315" />
  <sodipodi:namedview
     fit-margin-bottom="0"
     fit-margin-right="0"
     fit-margin-left="0"
     fit-margin-top="0"
     inkscape:window-maximized="0"
     inkscape:window-y="0"
     inkscape:window-x="117"
     inkscape:window-height="1224"
     inkscape:window-width="1781"
     showgrid="false"
     inkscape:document-rotation="0"
     inkscape:current-layer="layer1"
     inkscape:document-units="mm"
     inkscape:cy="152.1111"
     inkscape:cx="83.929991"
     inkscape:zoom="2.6033602"
     inkscape:pageshadow="2"
     inkscape:pageopacity="0.0"
     borderopacity="1.0"
     id="base"
     inkscape:pagecheckerboard="0"
     width="146.71918mm" />
  <metadata
     id="metadata2318">
    <rdf:RDF>
      <cc:Work
         rdf:about="">
        <dc:format>image/svg+xml</dc:format>
        <dc:type
           rdf:resource="http://purl.org/dc/dcmitype/StillImage" />
      </cc:Work>
    </rdf:RDF>
  </metadata>
  <g
     transform="translate(-33.379558,-123.86623)"
     id="layer1"
     inkscape:groupmode="layer"
     inkscape:label="Layer 1">
    <g
       id="g1911-8-3-9-3-2-8"
       transform="matrix(0.70543523,0,0,0.70543523,-355.02702,-155.3989)"
       inkscape:export-filename="/home/carter/code/bevy/assets/bevy_logo_dark.png"
       inkscape:export-xdpi="81.422768"
       inkscape:export-ydpi="81.422768">
      <g
         transform="matrix(-0.40426719,-0.17438247,-0.17438247,0.40426719,678.77611,389.84765)"
         id="g1121-3-8-8-2-8-7-1-2-8-3-9-6-0-1"
         inkscape:export-filename="/home/carter/code/bevy/assets/temp_bevy_logo.png"
         inkscape:export-xdpi="81.422768"
         inkscape:export-ydpi="81.422768">
        <path
           inkscape:connector-curvature="0"
           id="path819-1-94-5-3-1-9-6-4-90-0-8-9-5-8-6-1-6-2"
           d="m 2246.0312,2340.1914 v 0 c -0.016,3e-4 -0.031,0 -0.047,0 -0.9804,3.0675 -1.7386,6.3997 -1.8828,10.1953 -0.2712,7.1263 0.453,11.4639 -0.3672,16.0801 -0.8202,4.6163 -3.2453,9.161 -9.4141,16.2871 -7.3424,8.482 -18.9789,15.0453 -32.4199,17.2637 -2.5015,1.5971 -5.1421,3.0609 -7.9199,4.3633 10.4618,3.9385 21.4025,4.1531 30.0761,1.3066 15.2793,-5.0141 14.0962,-8.6155 20.9434,-19.1074 2.1569,-3.3051 4.6474,-5.8282 7.1484,-7.9004 7.1248,3.1068 14.1431,5.1015 18.5157,4.6074 2.351,-5.4505 -0.057,-11.7712 -4.0586,-17.7461 3.2821,-10.196 -1.6986,-20.4059 -12.7305,-24.0156 -2.8775,-0.9415 -5.4633,-1.3844 -7.8438,-1.3379 z m 8.2754,14.9707 a 4.1668789,4.2454995 48.679502 0 1 3.1973,1.3965 4.1668789,4.2454995 48.679502 0 1 -0.4375,5.9336 4.1668789,4.2454995 48.679502 0 1 -5.9394,-0.3262 4.1668789,4.2454995 48.679502 0 1 0.4375,-5.9336 4.1668789,4.2454995 48.679502 0 1 2.7421,-1.0703 z m -68.375,45.3789 c 0.1273,0.075 0.2572,0.1408 0.3848,0.2149 0.131,-0.049 0.2642,-0.1009 0.3945,-0.1504 -0.2598,-0.023 -0.5188,-0.039 -0.7793,-0.064 z"
           transform="matrix(-0.55180403,-0.23802315,-0.23802315,0.55180403,1946.7322,-620.612)" />
      </g>
    </g>
    <g
       id="g1051-1-2-0-8-6-0-8-1-5-6-9-6-8-9"
       transform="matrix(-0.32026494,0.2588221,0.2588221,0.32026494,62.230381,48.35052)"
       inkscape:export-filename="/home/carter/code/bevy/assets/bevy_logo_dark.png"
       inkscape:export-xdpi="81.422768"
       inkscape:export-ydpi="81.422768">
      <g
         id="g3029-3-9-3"
         transform="matrix(-0.35254083,0.28490586,0.28490586,0.35254083,477.11004,-1021.7666)">
        <path
           inkscape:connector-curvature="0"
           id="path3031-2-2-9"
           d="m 2191.1465,2276.7832 c -5.9729,-0.035 -12.0979,2.348 -17.3613,7.459 -6.9129,6.7127 -9.0602,12.7555 -7.8477,20.2949 l 0.332,2.0684 -2.0664,-0.336 c -15.1877,-2.4609 -33.9847,-1.2178 -55.3711,7.4336 6.2868,2.6948 17.8259,7.1926 30.6309,13.3418 l 4.0605,1.9512 -4.414,0.8945 c -16.9087,3.4274 -36.9729,13.3275 -55.2989,34.9336 8.1981,-0.6372 24.9531,-2.6089 42.4278,-2.582 9.7138,0.015 19.2869,0.687 27.0859,2.709 7.7991,2.022 14.0258,5.4353 16.3672,11.2851 l 0.1602,0.4004 -0.076,0.4238 c -0.3844,2.1831 -0.7613,4.1493 -1.1172,5.7598 -0.8163,3.6943 -4.0098,6.6817 -8.1953,9.3418 -4.1855,2.6601 -9.4961,4.9849 -15.0137,6.9609 -11.0352,3.9521 -22.7798,6.4773 -27.9648,6.959 -1.1021,0.1024 -1.5421,0.4983 -1.9668,1.2696 -0.4247,0.7712 -0.659,1.9824 -0.6934,3.25 -0.046,1.6926 0.181,3.1045 0.3672,4.0625 33.7495,2.7665 58.8475,-5.6513 76.959,-12.8379 20.3508,-9.3311 33.2134,-27.7577 36.0058,-44.3477 1.7499,-10.395 1.3746,-15.4894 -0.3124,-19.8281 -1.6873,-4.3387 -4.9223,-8.1914 -9.0254,-15.5488 -2.6368,-4.7281 -4.1077,-9.367 -5.0196,-13.6875 l -0.1933,-0.9102 0.7265,-0.582 c 7.5403,-6.0446 13.6809,-12.6444 15.9102,-17.4492 -4.5742,-4.8648 -12.4787,-5.893 -21.3223,-4.9473 l -0.7265,0.076 -0.5118,-0.5215 c -4.7125,-4.8006 -10.5615,-7.2614 -16.5351,-7.2969 z m 2.6484,11.2324 a 5.628704,5.5244684 76.402924 0 1 5.502,4.3223 5.628704,5.5244684 76.402924 0 1 -4.0469,6.7695 5.628704,5.5244684 76.402924 0 1 -6.6934,-4.1719 5.628704,5.5244684 76.402924 0 1 4.0469,-6.7695 5.628704,5.5244684 76.402924 0 1 1.1914,-0.1504 z"
           transform="translate(5.0092774e-5,-757.87625)" />
      </g>
    </g>
    <g
       id="g1051-1-1-8-8-4-9-4-0-4-6-4-7-6-6-0"
       transform="matrix(-0.35631092,0.04765137,0.04765137,0.35631092,120.94227,79.690651)"
       inkscape:export-filename="/home/carter/code/bevy/assets/bevy_logo_dark.png"
       inkscape:export-xdpi="81.422768"
       inkscape:export-ydpi="81.422768">
      <g
         id="g1129-5-9-8-0-7-2-7-3-8-61-1-6-8"
         transform="translate(-20.244579,-6.1209206)">
        <g
           id="g1344-1-3-9-3-8-8-8-3-5-4-8"
           transform="translate(61.54776,-5.6726683)">
          <g
             id="g1121-7-7-2-3-3-7-4-5-8-2-5-9-5">
            <g
               id="g3006-4-5-0"
               transform="matrix(-0.514626,0.06882369,0.06882369,0.514626,1184.3644,-811.9091)">
              <path
                 inkscape:connector-curvature="0"
                 id="path3008-7-0-9"
                 d="m 2230.8945,2301.1738 c -1.9108,-0.039 -3.9117,0.162 -5.9785,0.6328 -0.1394,0.032 -0.2613,0.071 -0.3984,0.1036 -2.274,2.2481 -4.8127,4.5047 -7.5293,6.7168 0.8746,3.8597 2.1735,7.8829 4.4707,12.0019 3.9872,7.1495 7.2742,10.9657 9.2031,15.9258 1.9289,4.9601 2.2639,10.7945 0.4746,21.4238 -2.2183,13.178 -10.2404,27.1324 -22.959,37.4336 9.8717,-2.8792 18.2866,-8.1915 23.8575,-14.6269 6.0132,-6.9464 8.0191,-10.8762 8.7226,-14.836 0.7036,-3.9598 0.044,-8.2997 0.3242,-15.664 0.1805,-4.7447 1.1911,-8.8958 2.4766,-12.545 l 0.3086,-0.875 0.9219,-0.1211 c 8.2284,-1.0673 15.6654,-3.167 19.5097,-5.6484 -1.2349,-5.5522 -6.4807,-9.8603 -13.4277,-13.1348 l -0.6621,-0.3125 -0.166,-0.7129 c -2.2034,-9.4614 -9.5905,-15.5632 -19.1485,-15.7617 z m 4.7832,11.6856 a 4.8229105,4.9139092 17.729059 0 1 1.4473,0.2246 4.8229105,4.9139092 17.729059 0 1 3.0977,6.1484 4.8229105,4.9139092 17.729059 0 1 -6.0899,3.2129 4.8229105,4.9139092 17.729059 0 1 -3.0976,-6.1484 4.8229105,4.9139092 17.729059 0 1 4.6425,-3.4375 z"
                 transform="translate(1.2499985e-4,-757.87627)" />
            </g>
          </g>
        </g>
      </g>
    </g>
  </g>
</svg>
