<?xml version="1.0" encoding="UTF-8" standalone="no"?>
<svg xmlns="http://www.w3.org/2000/svg" height="512" width="512" version="1.1">
 <g font-weight="400" font-size="100" letter-spacing="0" word-spacing="0" font-family="TimeBurner">
  <path d="m3.5508 59.904v28.397h27.109 182.7l-49.29 84.649-161.27 279.15h266.82 136.86c14.29 0 27.86-2.68 40.72-8.04 12.86-5.72 23.94-13.22 33.22-22.5 9.65-9.65 17.15-20.72 22.51-33.22 5.71-12.86 8.57-26.61 8.57-41.26 0-20.36-5.36-38.75-16.07-55.18-10.36-16.79-24.12-29.47-41.26-38.04 15-9.29 26.79-21.61 35.36-36.97 8.93-15.72 13.4-32.86 13.4-51.44-0.01-14.64-2.86-28.39-8.58-41.25-5.35-12.86-12.86-23.93-22.5-33.221-9.29-9.643-20.36-17.143-33.22-22.502-12.86-5.714-26.43-8.573-40.72-8.573h-130.19v364.34h-216.16l145.19-251.29 64.83-113.05-32.14 0.004h-198.78-27.109zm292.03 28.397h102.33c10.72 0.001 20.72 2.143 30.01 6.428 9.28 3.93 17.32 9.471 24.11 16.611 7.14 6.79 12.68 14.82 16.61 24.11 3.92 9.29 5.89 19.29 5.89 30 0 10.72-1.97 20.72-5.89 30.01-3.93 9.28-9.47 17.5-16.61 24.64-6.79 6.79-14.83 12.15-24.11 16.08-9.29 3.92-19.29 5.89-30.01 5.89h-102.33v-153.77zm110.9 181.63h0.01c10.71 0 20.71 2.14 30 6.43 9.29 3.93 17.32 9.46 24.11 16.61 7.14 6.79 12.68 14.82 16.61 24.11 4.28 9.29 6.43 19.29 6.43 30 0 10.72-2.15 20.9-6.43 30.54-3.93 9.29-9.47 17.5-16.61 24.65-6.79 6.78-14.83 12.14-24.11 16.07-9.29 3.93-19.29 5.9-30.01 5.9h-110.9v-153.77h106.62c1.43-0.36 2.86-0.54 4.28-0.54z"/>
 </g>
 <path d="m3.564 241.91h316.1v28.172h-316.1z"/>
</svg>
