<?xml version="1.0" standalone="no"?>
<!DOCTYPE svg PUBLIC "-//W3C//DTD SVG 20010904//EN"
 "http://www.w3.org/TR/2001/REC-SVG-20010904/DTD/svg10.dtd">
<svg version="1.0" xmlns="http://www.w3.org/2000/svg"
 width="1017.000000pt" height="1017.000000pt" viewBox="0 0 1017.000000 1017.000000"
 preserveAspectRatio="xMidYMid meet">
<metadata>
Created by potrace 1.11, written by Peter Selinger 2001-2013
</metadata>
<g transform="translate(0.000000,1017.000000) scale(0.100000,-0.100000)"
fill="#000000" stroke="none">
<path d="M612 8698 l3 -282 1807 0 c995 0 1808 -3 1808 -7 0 -4 -61 -112 -136
-240 -75 -129 -144 -247 -154 -264 -9 -16 -81 -140 -160 -275 -78 -135 -150
-258 -160 -275 -9 -16 -97 -167 -195 -335 -98 -168 -187 -321 -198 -340 -28
-50 -341 -592 -387 -670 -21 -36 -97 -167 -168 -291 -72 -124 -140 -241 -151
-260 -11 -19 -27 -48 -36 -64 l-15 -31 -1191 1 c-655 0 -1195 -3 -1200 -6 -5
-3 -8 -120 -7 -280 l3 -274 1032 0 c568 0 1033 -2 1033 -4 0 -2 -30 -56 -67
-120 -38 -64 -75 -128 -83 -142 -8 -14 -37 -65 -65 -113 -78 -138 -83 -146
-240 -416 -81 -140 -159 -275 -173 -300 -13 -25 -28 -49 -32 -55 -4 -5 -68
-116 -142 -245 -75 -129 -191 -332 -260 -450 -68 -118 -235 -407 -371 -641
-135 -234 -255 -441 -266 -460 -11 -19 -26 -45 -34 -59 -26 -48 -250 -435
-298 -516 -27 -45 -49 -85 -49 -88 0 -9 8155 -6 8225 4 33 4 84 11 114 15 64
8 65 8 156 29 374 88 710 278 990 560 211 213 337 403 470 711 23 55 63 179
83 260 46 184 57 281 57 500 0 260 -22 412 -92 630 -95 299 -289 612 -522 845
-147 146 -298 260 -462 347 l-56 30 56 38 c251 173 448 376 597 618 166 268
265 552 302 867 8 74 8 390 -1 463 -41 343 -174 695 -366 966 -36 51 -73 103
-81 115 -33 48 -301 306 -375 362 -298 223 -652 366 -1015 409 -162 20 -2820
22 -2821 3 0 -7 -1 -821 -2 -1808 l-2 -1795 -1097 0 c-604 0 -1098 1 -1098 3
0 2 23 42 50 89 27 47 50 86 50 88 0 2 21 39 48 82 26 43 53 89 60 103 7 14
18 34 25 45 38 64 331 571 553 957 63 108 123 212 133 230 11 18 28 49 39 68
22 40 182 318 409 713 85 148 162 283 172 300 10 18 107 187 216 377 109 190
209 365 223 390 13 25 28 50 32 55 9 12 60 106 60 111 0 2 -1031 4 -2290 4
l-2290 0 2 -282z m7536 -301 c221 -43 422 -125 612 -251 104 -69 341 -308 412
-416 108 -162 198 -380 224 -540 2 -14 6 -34 9 -45 25 -117 24 -379 -4 -535
-83 -471 -383 -875 -807 -1085 -143 -71 -280 -117 -412 -139 -15 -3 -47 -8
-72 -13 -25 -4 -538 -8 -1140 -8 l-1095 0 -3 1515 c-1 833 0 1520 2 1526 3 7
325 10 1098 9 952 -2 1104 -4 1176 -18z m-2832 -5123 l1 -1531 -2143 1 c-1179
0 -2144 1 -2144 3 0 6 62 113 626 1089 295 511 547 947 559 969 23 40 73 126
257 445 53 91 144 248 202 350 59 102 113 190 120 195 9 7 443 10 1267 10
l1254 0 1 -1531z m2989 1516 c254 -42 543 -172 722 -326 237 -204 374 -394
482 -667 82 -206 115 -472 87 -702 -21 -172 -74 -343 -163 -520 -30 -60 -59
-111 -64 -113 -5 -2 -9 -9 -9 -15 -1 -18 -107 -157 -175 -229 -125 -132 -274
-242 -435 -320 -47 -23 -89 -43 -95 -44 -5 -1 -27 -9 -47 -18 -53 -23 -220
-65 -308 -78 -51 -8 -451 -12 -1252 -13 l-1178 -2 0 1528 0 1527 1071 0 c588
0 1072 2 1075 5 9 8 215 0 289 -13z"/>
</g>
</svg>
